<?xml version="1.0" encoding="UTF-8" standalone="no"?>
<!DOCTYPE svg PUBLIC "-//W3C//DTD SVG 1.1//EN" "http://www.w3.org/Graphics/SVG/1.1/DTD/svg11.dtd">
<svg xmlns="http://www.w3.org/2000/svg" version="1.1" viewBox="0.00 0.00 748.00 333.00">
<path fill="#cc1a1a" d="
  M 163.92 168.73
  Q 162.68 168.87 162.95 170.09
  C 164.95 179.01 169.38 187.42 170.75 196.17
  C 171.81 202.99 171.31 210.01 173.41 217.38
  C 175.75 225.55 177.83 234.19 181.65 241.83
  A 0.70 0.69 80.9 0 1 180.93 242.83
  C 175.98 242.07 169.53 235.56 165.88 232.18
  A 1.27 1.26 33.9 0 0 163.87 232.57
  L 163.20 234.00
  A 0.82 0.81 42.1 0 1 161.76 234.07
  C 159.06 229.48 155.72 222.40 151.68 219.31
  Q 140.97 211.11 130.20 202.79
  A 4.02 4.02 0.0 0 0 124.84 203.19
  C 121.32 206.86 116.90 209.12 116.51 214.66
  A 0.85 0.84 86.4 0 1 115.85 215.42
  Q 114.91 215.62 114.83 214.24
  Q 114.61 210.34 115.38 206.48
  Q 115.64 205.16 115.12 204.33
  A 0.97 0.97 0.0 0 0 113.75 204.05
  L 108.39 207.79
  Q 107.90 208.13 107.78 208.71
  L 106.92 212.86
  A 0.64 0.63 -7.8 0 1 106.57 213.31
  Q 105.81 213.68 105.50 212.78
  C 102.84 205.16 99.41 204.65 96.21 212.41
  Q 95.04 215.27 94.66 212.20
  Q 94.34 209.55 96.44 206.91
  C 98.22 204.66 105.40 202.71 102.36 199.17
  C 98.60 194.80 95.95 191.16 93.25 185.78
  Q 89.29 177.88 85.33 169.98
  Q 83.31 165.95 79.63 163.39
  C 77.61 161.98 76.88 154.35 76.60 149.99
  Q 76.11 142.48 75.28 134.99
  C 74.36 126.75 68.67 119.42 68.51 111.69
  C 68.38 105.00 72.14 98.82 75.61 93.37
  A 2.93 2.90 48.3 0 0 75.76 90.51
  C 74.10 87.14 72.12 85.11 71.12 80.97
  A 1.77 1.77 0.0 0 1 72.57 78.80
  C 76.53 78.18 76.66 74.46 76.85 71.07
  Q 76.95 69.41 78.07 70.63
  C 79.81 72.52 82.25 77.62 84.97 77.18
  A 2.02 2.01 -14.6 0 1 87.19 78.48
  L 88.59 82.33
  A 2.01 2.01 0.0 0 0 90.68 83.63
  Q 99.01 82.77 107.24 84.14
  A 1.42 1.42 0.0 0 0 108.89 82.77
  C 108.96 79.34 109.04 75.52 111.96 73.18
  Q 112.57 72.70 112.92 73.39
  L 113.63 74.76
  A 0.81 0.80 -32.6 0 0 114.84 75.02
  L 121.83 69.56
  A 1.39 1.39 0.0 0 1 124.08 70.73
  L 123.71 77.13
  A 1.51 1.51 0.0 0 0 125.39 78.71
  L 127.95 78.41
  Q 128.64 78.33 128.77 79.01
  C 129.77 84.04 121.84 86.40 125.06 93.21
  Q 125.68 94.53 128.52 99.14
  Q 130.87 102.96 132.63 110.27
  Q 133.42 113.59 136.81 116.94
  Q 147.50 127.50 158.45 137.80
  Q 159.83 139.09 161.38 141.59
  A 0.73 0.72 -44.6 0 1 161.37 142.35
  L 160.13 144.32
  A 1.59 1.58 44.8 0 0 160.14 146.04
  C 164.63 152.93 170.28 163.96 169.39 172.26
  A 0.42 0.42 0.0 0 1 168.70 172.54
  Q 166.95 171.06 165.11 169.42
  Q 164.29 168.69 163.92 168.73
  Z
  M 91.56 104.50
  L 80.11 102.63
  A 0.26 0.26 0.0 0 0 79.81 102.84
  L 79.76 103.19
  A 6.51 6.04 -80.7 0 0 84.66 110.59
  L 84.70 110.60
  A 6.51 6.04 -80.7 0 0 91.72 105.15
  L 91.77 104.80
  A 0.26 0.26 0.0 0 0 91.56 104.50
  Z
  M 113.46 111.10
  A 1.47 1.47 0.0 0 0 115.01 110.51
  L 118.81 104.99
  A 1.47 1.47 0.0 0 0 117.35 102.71
  L 107.58 104.34
  A 1.47 1.47 0.0 0 0 106.60 106.62
  L 108.58 109.54
  A 1.47 1.47 0.0 0 0 109.45 110.14
  L 113.46 111.10
  Z
  M 97.31 122.35
  A 1.47 1.47 0.0 0 0 100.11 122.35
  L 103.04 113.45
  A 1.47 1.47 0.0 0 0 102.71 111.97
  L 99.90 109.02
  A 1.47 1.47 0.0 0 0 97.78 109.01
  L 94.77 112.11
  A 1.47 1.47 0.0 0 0 94.43 113.59
  L 97.31 122.35
  Z"
/>
<rect fill="#dd4645" x="-11.54" y="-9.86" transform="translate(306.65,114.89) rotate(-0.5)" width="23.08" height="19.72" rx="1.73"/>
<path fill="#dd4645" d="
  M 636.15 155.98
  Q 636.45 157.60 637.02 156.06
  C 638.53 152.01 640.18 148.25 640.61 143.83
  Q 642.40 125.04 644.05 106.38
  A 0.73 0.73 0.0 0 1 644.78 105.72
  L 666.20 105.66
  Q 667.23 105.66 666.93 106.65
  L 650.13 162.42
  A 4.17 3.78 -38.6 0 0 649.95 163.53
  L 648.88 207.70
  Q 648.87 208.27 648.30 208.29
  L 622.29 209.00
  Q 622.07 209.00 622.10 208.78
  L 626.96 167.93
  Q 627.11 166.71 626.30 165.78
  C 624.03 163.16 622.64 160.63 621.53 157.10
  Q 613.74 132.40 606.03 107.66
  A 0.28 0.28 0.0 0 1 606.27 107.30
  L 626.20 105.83
  A 0.90 0.90 0.0 0 1 627.15 106.56
  L 636.15 155.98
  Z"
/>
<path fill="#dd4645" d="
  M 251.29 167.72
  Q 249.62 168.81 249.23 171.01
  Q 245.85 189.77 242.56 208.41
  A 0.52 0.51 -81.1 0 1 241.99 208.83
  L 217.49 206.05
  Q 217.01 206.00 217.00 205.51
  C 216.81 192.05 215.67 176.86 215.32 165.26
  C 214.74 145.88 213.79 126.34 214.02 106.95
  A 0.71 0.71 0.0 0 1 214.73 106.24
  L 229.57 106.25
  Q 230.13 106.25 230.17 106.81
  L 233.98 159.49
  A 0.84 0.83 -21.2 0 0 235.33 160.08
  Q 236.32 159.29 236.59 157.73
  Q 240.53 135.14 244.69 110.70
  Q 244.88 109.59 246.01 109.56
  L 255.76 109.31
  Q 256.66 109.28 256.81 110.18
  Q 260.20 131.53 263.80 152.99
  Q 264.12 154.92 266.00 155.56
  A 0.67 0.67 0.0 0 0 266.88 155.01
  L 272.91 107.32
  A 1.01 0.99 3.5 0 1 273.91 106.45
  L 285.49 106.43
  A 0.54 0.54 0.0 0 1 286.03 106.99
  L 282.45 206.74
  Q 282.44 207.24 281.94 207.28
  Q 272.49 208.02 263.03 208.63
  C 258.13 208.94 256.02 206.74 255.65 202.01
  Q 254.99 193.52 251.94 168.02
  Q 251.86 167.34 251.29 167.72
  Z"
/>
<path fill="#dd4645" d="
  M 352.69 189.96
  A 0.49 0.49 0.0 0 0 353.08 190.44
  Q 362.55 192.42 372.22 192.45
  A 0.72 0.72 0.0 0 1 372.94 193.21
  L 372.17 207.71
  A 0.19 0.19 0.0 0 1 371.98 207.89
  L 330.58 208.88
  Q 329.42 208.91 329.39 207.74
  Q 328.52 163.66 327.68 120.89
  C 327.60 116.57 327.95 112.62 328.38 108.41
  A 1.15 1.14 1.5 0 1 329.46 107.39
  L 352.02 106.36
  A 0.66 0.66 0.0 0 1 352.71 107.02
  L 352.69 189.96
  Z"
/>
<path fill="#dd4645" d="
  M 523.29 177.22
  L 511.50 176.37
  A 0.71 0.70 -84.5 0 0 510.75 176.99
  L 507.36 207.52
  A 0.64 0.63 2.6 0 1 506.74 208.08
  L 494.52 208.42
  Q 493.98 208.44 494.02 207.89
  Q 495.71 186.64 497.59 165.46
  C 499.21 147.15 502.10 128.85 504.65 110.63
  Q 504.91 108.74 505.12 107.61
  Q 505.22 107.12 505.72 107.06
  C 518.54 105.65 528.94 106.75 540.69 107.55
  Q 541.19 107.58 541.23 108.09
  Q 542.74 127.86 544.18 147.52
  C 545.62 167.19 545.72 187.04 546.26 206.76
  Q 546.28 207.29 545.74 207.32
  L 525.71 208.31
  A 0.64 0.63 -2.2 0 1 525.04 207.70
  L 523.84 177.79
  Q 523.82 177.26 523.29 177.22
  Z
  M 511.42 162.68
  L 523.74 161.91
  Q 524.57 161.86 524.55 161.02
  C 524.39 153.65 524.78 145.77 523.00 138.59
  Q 521.95 134.40 520.87 130.24
  A 0.98 0.98 0.0 0 0 520.02 129.51
  L 512.57 128.75
  A 0.46 0.46 0.0 0 0 512.06 129.18
  L 510.64 161.92
  Q 510.61 162.73 511.42 162.68
  Z"
/>
<path fill="#dd4645" d="
  M 458.93 162.21
  L 459.11 207.74
  A 0.11 0.10 90.0 0 1 459.01 207.85
  L 438.60 208.03
  A 1.00 1.00 0.0 0 1 437.59 207.06
  Q 437.08 186.65 437.83 166.00
  C 438.55 146.38 437.91 126.94 437.49 107.34
  A 0.57 0.57 0.0 0 1 438.04 106.76
  Q 453.38 106.45 468.75 107.05
  C 473.38 107.23 478.17 107.71 482.18 110.62
  C 485.31 112.90 487.22 116.75 489.11 120.15
  A 3.89 3.86 -57.6 0 1 489.59 122.34
  Q 488.73 133.75 488.01 145.25
  C 487.60 151.84 483.83 152.32 478.59 153.85
  A 0.68 0.67 54.5 0 0 478.39 155.05
  L 485.39 159.97
  Q 486.54 160.78 487.12 162.06
  C 488.48 165.06 489.32 168.18 489.27 171.69
  Q 488.99 189.66 487.89 207.61
  Q 487.86 208.09 487.39 208.19
  C 482.47 209.25 476.07 208.31 471.10 208.21
  A 0.96 0.96 0.0 0 1 470.16 207.26
  Q 469.96 188.13 468.74 169.48
  C 468.43 164.71 463.55 162.24 459.32 161.85
  Q 458.93 161.82 458.93 162.21
  Z
  M 451.22 119.73
  L 452.01 147.96
  A 0.93 0.93 0.0 0 0 452.96 148.87
  L 458.57 148.71
  A 9.02 6.90 88.4 0 0 465.22 139.50
  L 464.88 127.44
  A 9.02 6.90 88.4 0 0 457.73 118.62
  L 452.12 118.78
  A 0.93 0.93 0.0 0 0 451.22 119.73
  Z"
/>
<path fill="#dd4645" d="
  M 574.67 162.33
  L 574.92 207.48
  Q 574.92 207.87 574.52 207.87
  L 554.18 208.05
  A 0.81 0.81 0.0 0 1 553.37 207.26
  Q 552.85 186.15 553.65 164.73
  C 554.36 145.51 553.67 126.55 553.22 107.40
  Q 553.20 106.82 553.79 106.80
  Q 567.50 106.47 581.50 106.73
  C 588.08 106.85 593.06 107.40 597.73 110.55
  C 600.98 112.75 602.76 116.02 604.44 119.42
  Q 605.41 121.37 605.26 123.75
  Q 604.50 135.53 603.65 147.25
  Q 603.52 149.08 601.93 150.74
  C 600.15 152.61 596.64 153.14 594.17 153.92
  A 0.51 0.51 0.0 0 0 594.02 154.82
  C 597.09 157.03 601.56 159.35 603.23 162.77
  Q 605.09 166.60 605.06 170.00
  Q 604.92 185.14 604.17 200.25
  Q 603.98 204.14 603.60 206.83
  Q 603.34 208.68 601.47 208.63
  L 586.78 208.20
  A 0.66 0.66 0.0 0 1 586.14 207.56
  C 585.66 194.82 585.38 182.10 584.42 169.34
  C 584.06 164.56 579.49 162.23 575.18 161.86
  Q 574.67 161.82 574.67 162.33
  Z
  M 567.27 119.85
  L 567.71 147.80
  A 1.05 1.05 0.0 0 0 568.78 148.84
  L 574.37 148.75
  A 8.68 6.58 89.1 0 0 580.81 139.97
  L 580.61 127.27
  A 8.68 6.58 89.1 0 0 573.89 118.69
  L 568.30 118.78
  A 1.05 1.05 0.0 0 0 567.27 119.85
  Z"
/>
<path fill="#dd4645" d="
  M 417.61 161.12
  A 0.52 0.52 0.0 0 0 417.72 162.08
  C 420.53 162.85 425.94 164.96 426.79 168.14
  Q 428.26 173.67 429.54 178.76
  A 8.20 8.09 -48.9 0 1 429.72 181.70
  Q 428.66 190.31 427.45 199.25
  C 427.08 201.92 426.13 202.28 423.80 204.25
  Q 421.69 206.05 420.47 206.21
  C 415.02 206.92 409.54 207.91 404.14 208.07
  Q 391.59 208.43 379.02 208.24
  Q 378.51 208.23 378.46 207.71
  C 377.41 196.22 376.20 185.12 376.47 173.39
  Q 377.21 140.60 376.98 107.97
  A 0.58 0.57 89.5 0 1 377.54 107.39
  Q 387.29 107.12 397.07 107.11
  C 405.41 107.10 414.11 108.89 421.27 111.50
  Q 423.65 112.36 424.38 115.71
  Q 426.41 125.05 428.55 134.38
  Q 429.51 138.55 429.33 142.24
  C 429.06 147.85 427.83 154.89 424.31 158.32
  Q 421.84 160.73 420.13 160.65
  Q 418.64 160.59 417.61 161.12
  Z
  M 410.31 127.89
  C 405.85 124.32 402.56 122.33 396.54 123.17
  Q 396.06 123.23 396.07 123.72
  L 397.05 152.78
  Q 397.06 153.14 397.42 153.18
  C 401.68 153.55 407.62 150.99 408.67 146.49
  Q 410.81 137.31 410.71 128.73
  Q 410.70 128.21 410.31 127.89
  Z
  M 407.55 180.53
  C 407.40 176.74 406.40 171.84 404.64 168.07
  A 0.88 0.88 0.0 0 0 403.86 167.56
  L 396.97 167.49
  Q 396.23 167.48 396.28 168.22
  Q 396.97 178.41 395.94 188.59
  Q 395.89 189.13 396.35 189.42
  Q 399.86 191.65 403.78 190.53
  Q 404.28 190.38 404.59 189.96
  Q 407.74 185.63 407.55 180.53
  Z"
/>
<path fill="#dd4645" d="
  M 317.73 132.73
  C 317.53 139.26 316.49 145.36 316.84 152.41
  C 317.47 165.07 318.46 178.07 318.10 190.49
  Q 317.86 198.70 317.39 206.94
  A 0.89 0.88 -87.6 0 1 316.49 207.78
  L 296.80 207.34
  Q 296.05 207.32 295.99 206.58
  C 295.86 204.79 295.53 202.92 295.49 201.16
  Q 294.69 166.68 295.73 132.36
  A 0.77 0.77 0.0 0 1 296.52 131.62
  L 317.24 132.21
  Q 317.75 132.23 317.73 132.73
  Z"
/>
</svg>
